<svg xmlns="http://www.w3.org/2000/svg" height="15px" width="15px" xmlns:xlink="http://www.w3.org/1999/xlink" viewBox="0 0 15 15">
<g fill="none" fill-rule="evenodd">
<g transform="translate(-63 -629)">
<g transform="translate(54 530)">
<g transform="translate(0 85)">
<g transform="translate(9 13)">
<rect y="0" x="0" width="15" height="18"/>
<path d="m14.587 13.595l-3.301-3.301c0.575-0.9302 0.922-2.0159 0.922-3.1898 0-3.3714-2.7323-6.1042-6.1038-6.1042-3.3714 0-6.1042 2.7328-6.1042 6.1042 0 3.3718 2.7328 6.1038 6.1042 6.1038 1.1739 0 2.2596-0.347 3.1893-0.921l3.3015 3.301c0.551 0.551 1.442 0.551 1.992 0 0.551-0.55 0.551-1.442 0-1.993zm-8.4828-2.265c-2.3337 0-4.226-1.8921-4.226-4.2258s1.8923-4.226 4.226-4.226 4.2258 1.8923 4.2258 4.226-1.8921 4.2258-4.2258 4.2258z" fill="#252525"/>
</g>
</g>
</g>
</g>
</g>
</svg>
