<?xml version="1.0" encoding="utf-8"?>
<!-- Generator: Adobe Illustrator 15.1.0, SVG Export Plug-In . SVG Version: 6.00 Build 0)  -->
<!DOCTYPE svg PUBLIC "-//W3C//DTD SVG 1.1//EN" "http://www.w3.org/Graphics/SVG/1.1/DTD/svg11.dtd">
<svg version="1.1" id="Layer_1" xmlns="http://www.w3.org/2000/svg" xmlns:xlink="http://www.w3.org/1999/xlink" x="0px" y="0px"
	 width="128px" height="128px" viewBox="0 0 128 128" enable-background="new 0 0 128 128" xml:space="preserve">
<g>
	<linearGradient id="SVGID_1_" gradientUnits="userSpaceOnUse" x1="16.0918" y1="5.3247" x2="87.5376" y2="107.6421">
		<stop  offset="0" style="stop-color:#8F5B9E"/>
		<stop  offset="0.4908" style="stop-color:#834B8D"/>
		<stop  offset="1" style="stop-color:#7B4685"/>
	</linearGradient>
	<path fill="url(#SVGID_1_)" d="M8.061,0.761C3.192,4.657,6.275,20.608,15.34,31.118c22.196,25.733,85.1,86.73,88.689,83.466
		c3.59-3.264-35.678-66.491-67.667-103.051C29.508,2.393,11.325-1.852,8.061,0.761z"/>
	<linearGradient id="SVGID_2_" gradientUnits="userSpaceOnUse" x1="13.7192" y1="6.9858" x2="85.163" y2="109.3002">
		<stop  offset="0" style="stop-color:#8F5B9E"/>
		<stop  offset="0.4908" style="stop-color:#834B8D"/>
		<stop  offset="1" style="stop-color:#7B4685"/>
	</linearGradient>
	<path fill="url(#SVGID_2_)" d="M97.723,108.126c0,0-16.229,15.659-17.609,19.221c-1.381,3.562-9.406-7.563,1.516-30.261
		S97.723,108.126,97.723,108.126z"/>
	<linearGradient id="SVGID_3_" gradientUnits="userSpaceOnUse" x1="31.8955" y1="-5.7139" x2="103.3424" y2="96.6051">
		<stop  offset="0" style="stop-color:#8F5B9E"/>
		<stop  offset="0.4908" style="stop-color:#834B8D"/>
		<stop  offset="1" style="stop-color:#7B4685"/>
	</linearGradient>
	<path fill="url(#SVGID_3_)" d="M99.099,107.479c0,0,18.53-13.167,22.336-13.889c3.808-0.72-5.897-10.613-30.527-3.932
		C66.277,96.344,99.099,107.479,99.099,107.479z"/>
	<g>
		<linearGradient id="SVGID_4_" gradientUnits="userSpaceOnUse" x1="-13.3433" y1="25.8789" x2="58.1016" y2="128.1949">
			<stop  offset="0" style="stop-color:#8F5B9E"/>
			<stop  offset="0.4908" style="stop-color:#834B8D"/>
			<stop  offset="1" style="stop-color:#7B4685"/>
		</linearGradient>
		<path fill="url(#SVGID_4_)" d="M49.092,62.127c0,0-30.357,45.698-32.315,49.289c-1.959,3.592-9.141,7.788-7.834-2.798
			c1.306-10.585,14.205-55.957,19.996-66.402C34.729,31.77,49.092,62.127,49.092,62.127z"/>
		<linearGradient id="SVGID_5_" gradientUnits="userSpaceOnUse" x1="-6.1045" y1="20.8237" x2="65.3406" y2="123.1401">
			<stop  offset="0" style="stop-color:#8F5B9E"/>
			<stop  offset="0.4908" style="stop-color:#834B8D"/>
			<stop  offset="1" style="stop-color:#7B4685"/>
		</linearGradient>
		<path fill="url(#SVGID_5_)" d="M27.857,63.402c1.103,1.31,0.934,3.266-0.377,4.368l0,0c-1.31,1.103-3.266,0.934-4.369-0.377
			l-5.463-6.495c-1.103-1.311-0.934-3.268,0.377-4.369l0,0c1.31-1.102,3.267-0.934,4.369,0.378L27.857,63.402z"/>
		<linearGradient id="SVGID_6_" gradientUnits="userSpaceOnUse" x1="-18.8774" y1="29.7373" x2="52.5724" y2="132.0605">
			<stop  offset="0" style="stop-color:#8F5B9E"/>
			<stop  offset="0.4908" style="stop-color:#834B8D"/>
			<stop  offset="1" style="stop-color:#7B4685"/>
		</linearGradient>
		<path fill="url(#SVGID_6_)" d="M22.025,82.256c1.103,1.311,0.934,3.267-0.377,4.369l0,0c-1.311,1.103-3.267,0.933-4.369-0.377
			l-5.463-6.496c-1.103-1.311-0.934-3.268,0.377-4.369l0,0c1.31-1.102,3.267-0.934,4.369,0.378L22.025,82.256z"/>
	</g>
	<g>
		<linearGradient id="SVGID_7_" gradientUnits="userSpaceOnUse" x1="50.1753" y1="-18.4746" x2="121.6204" y2="83.8417">
			<stop  offset="0" style="stop-color:#8F5B9E"/>
			<stop  offset="0.4908" style="stop-color:#834B8D"/>
			<stop  offset="1" style="stop-color:#7B4685"/>
		</linearGradient>
		<path fill="url(#SVGID_7_)" d="M61.61,50.636c0,0,50.513-21.765,54.405-23.053c3.892-1.287,9.339-7.642-1.31-8.276
			c-10.648-0.636-57.631,3.878-68.967,7.716C34.402,30.859,61.61,50.636,61.61,50.636z"/>
		<linearGradient id="SVGID_8_" gradientUnits="userSpaceOnUse" x1="40.9507" y1="-12.0293" x2="112.3904" y2="90.2792">
			<stop  offset="0" style="stop-color:#8F5B9E"/>
			<stop  offset="0.4908" style="stop-color:#834B8D"/>
			<stop  offset="1" style="stop-color:#7B4685"/>
		</linearGradient>
		<path fill="url(#SVGID_8_)" d="M66.768,29.814c1.086,1.331,3.041,1.521,4.365,0.422l0,0c1.325-1.098,1.518-3.067,0.432-4.4
			l-5.382-6.601c-1.085-1.332-3.04-1.521-4.364-0.422l0,0c-1.324,1.098-1.519,3.067-0.432,4.4L66.768,29.814z"/>
		<linearGradient id="SVGID_9_" gradientUnits="userSpaceOnUse" x1="55.2285" y1="-22.0112" x2="126.6824" y2="80.3177">
			<stop  offset="0" style="stop-color:#8F5B9E"/>
			<stop  offset="0.4908" style="stop-color:#834B8D"/>
			<stop  offset="1" style="stop-color:#7B4685"/>
		</linearGradient>
		<path fill="url(#SVGID_9_)" d="M86.378,27.47c1.087,1.331,3.04,1.521,4.366,0.423l0,0c1.324-1.099,1.518-3.068,0.432-4.401
			l-5.382-6.601c-1.085-1.331-3.04-1.521-4.366-0.422l0,0c-1.323,1.098-1.518,3.069-0.431,4.399L86.378,27.47z"/>
	</g>
</g>
</svg>
