<svg xmlns="http://www.w3.org/2000/svg" width="30" height="30" viewBox="0 0 30 30">
  <path fill-rule="evenodd" fill="#000" d="M1289.33,38.186a2.847,2.847,0,0,1-2.42-1.236s-0.57,2.283-.69,2.725a10.738,10.738,0,0,1-1.79,3.241,0.135,0.135,0,0,1-.24-0.055,11.023,11.023,0,0,1,.03-3.768c0.19-.8,1.28-5.4,1.28-5.4a3.767,3.767,0,0,1-.32-1.567c0-1.47.85-2.565,1.91-2.565a1.33,1.33,0,0,1,1.34,1.487,21.081,21.081,0,0,1-.88,3.517,1.535,1.535,0,0,0,1.57,1.908c1.87,0,3.14-2.412,3.14-5.267,0-2.173-1.46-3.8-4.12-3.8a4.692,4.692,0,0,0-4.88,4.747,2.854,2.854,0,0,0,.65,1.944,0.478,0.478,0,0,1,.14.552c-0.05.183-.15,0.621-0.2,0.8a0.345,0.345,0,0,1-.5.246c-1.38-.564-2.03-2.081-2.03-3.785,0-2.816,2.38-6.192,7.09-6.192,3.78,0,6.27,2.738,6.27,5.678C1294.68,35.282,1292.52,38.186,1289.33,38.186ZM1288,19.013a14.993,14.993,0,1,0,15,14.993A14.99,14.99,0,0,0,1288,19.013Z" transform="translate(-1273 -19)"/>
</svg>
