<?xml version="1.0" encoding="utf-8"?>
<!-- Generator: Adobe Illustrator 15.1.0, SVG Export Plug-In . SVG Version: 6.00 Build 0)  -->
<!DOCTYPE svg PUBLIC "-//W3C//DTD SVG 1.1//EN" "http://www.w3.org/Graphics/SVG/1.1/DTD/svg11.dtd">
<svg version="1.1" id="Layer_1" xmlns="http://www.w3.org/2000/svg" xmlns:xlink="http://www.w3.org/1999/xlink" x="0px" y="0px"
	 width="50px" height="50px" viewBox="0 0 50 50" style="enable-background:new 0 0 50 50;" xml:space="preserve">
<style type="text/css">
<![CDATA[
	.st0{fill:#1D1D1B;}
	.st1{display:none;fill:#009EE2;}
	.st2{display:inline;fill:#FFFFFF;}
	.st3{fill-rule:evenodd;clip-rule:evenodd;}
	.st4{display:inline;fill-rule:evenodd;clip-rule:evenodd;fill:#FFFFFF;}
	.st5{fill:#004B96;}
	.st6{display:none;}
]]>
</style>
<g>
	<circle class="st1" cx="25" cy="25" r="25"/>
	<path class="st3" d="M24.1,20.3c1.6-5,3.6-8.2,5.8-10.6c1.7-1.8,2.5-2.3,1.6-0.4C31.9,9,32.6,8.5,33,8.3c2.7-1.3,2.5-0.2,0.7,0.9
		c5.1-1.8,4.9,0.5-0.5,1.7c4.4,0.1,9.1,2.9,10.5,8.9c0.2,0.8,0,0.8,0.8,0.9c1.8,0.3,3.6,0.3,5.2-0.2c-0.2,1.2-1.8,2-4.4,2.6
		c-0.9,0.2-1.1,0.1,0,0.4c1.4,0.3,3,0.4,4.6,0.3c-1.3,1.5-3.3,2.2-5.9,2.3c-1.6,5.8-5.2,9.9-9.8,12.5C23.5,44.7,7.9,43.8,0,32.7
		c5.2,4.1,12.8,4.9,18.5-0.7c-3.7,0-4.7-2.8-1.7-4.3c-2.8,0-4.6-0.9-5.6-2.5c-0.4-0.6-0.4-0.7,0.2-1.1c0.7-0.5,1.7-0.7,2.7-0.8
		c-2.9-0.8-4.7-2.3-5.3-4.4c-0.2-0.7-0.2-0.6,0.4-0.8c0.7-0.2,1.5-0.3,2.3-0.3c-2.3-1.4-3.6-3.1-4-4.9c-0.3-1.8,0-1.3,1.3-0.8
		C14.8,14.3,20.7,16.7,24.1,20.3L24.1,20.3z"/>
</g>
<g class="st6">
	<circle class="st5" cx="25" cy="25" r="25"/>
	<path class="st2" d="M27.2,39.5h-6V25h-3v-5h3v-3c0-4.1,1.7-6.5,6.5-6.5h4v5h-2.5c-1.9,0-2,0.7-2,2l0,2.5h4.5l-0.5,5h-4V39.5z"/>
</g>
<g class="st6">
	<circle class="st0" cx="25" cy="25" r="25"/>
	<path class="st4" d="M33.8,23.2h-2c0.1,0.6,0.2,1.2,0.2,1.8c0,3.9-3.2,7.1-7.1,7.1s-7.1-3.2-7.1-7.1c0-0.6,0.1-1.2,0.2-1.8h-2V33
		c0,0.5,0.4,0.9,0.9,0.9H33c0.5,0,0.9-0.4,0.9-0.9V23.2z M33.8,17c0-0.5-0.4-0.9-0.9-0.9h-2.7c-0.5,0-0.9,0.4-0.9,0.9v2.7
		c0,0.5,0.4,0.9,0.9,0.9H33c0.5,0,0.9-0.4,0.9-0.9V17z M25,20.6c-2.4,0-4.4,2-4.4,4.4c0,2.4,2,4.4,4.4,4.4s4.4-2,4.4-4.4
		C29.4,22.6,27.4,20.6,25,20.6 M33.8,36.5H16.2c-1.5,0-2.7-1.2-2.7-2.7V16.2c0-1.5,1.2-2.7,2.7-2.7h17.7c1.5,0,2.7,1.2,2.7,2.7v17.7
		C36.5,35.3,35.3,36.5,33.8,36.5"/>
</g>
</svg>
